# xmcd
#
# Track frame offsets:
#	150
#	12327
#	23769
#	42333
#	59299
#	81433
#	102051
#	121676
#	140296
#	158604
#	174668
#	193267
#	213077
#	243551
#	263977
#	283002
#	303558
#	326661
#
# Disc length: 4770
#
# Revision: 2
# Processed by: cddbd v1.5.1PL0 Copyright (c) Steve Scherf et al.
# Submitted via: audiograbber 1.80.04
# Normalized: r1:DSETVAR1
#
DISCID=f912a012
DTITLE=Various Artist - RoadMusic Cruisin'/ Night
DYEAR=2001
DGENRE=
TTITLE0=Nilsson - Everybody's talkin'
TTITLE1=Willie Nelson - On the road again
TTITLE2=America - A horse with no name
TTITLE3=The Flying Burrito Brothers - Dark end of the street
TTITLE4=Maria Mc Kee - If love is a red dress (Hang me in rags)
TTITLE5=Tony Joe White - Across from midnight
TTITLE6=Soul Asylum - Runaway train
TTITLE7=The Jayhawks - What led me to this town
TTITLE8=Alejandro Escovedo - Rhapsody
TTITLE9=The Cowboy Junkies - Sweet Jane
TTITLE10=John Trudell - All nite cafe
TTITLE11=Sunhouse - Hurricane
TTITLE12=Stevie Ray Vaughan - Little wing
TTITLE13=Lloyd Cole and the Commotions - Forest fire
TTITLE14=Marc Cohn - Walking in Memphis
TTITLE15=K. D. Lang - Constant craving
TTITLE16=Blue Öyster Cult - (Don't fear) The reaper
TTITLE17=Great White - Congo Square
EXTD=
EXTT0=
EXTT1=
EXTT2=
EXTT3=
EXTT4=
EXTT5=
EXTT6=
EXTT7=
EXTT8=
EXTT9=
EXTT10=
EXTT11=
EXTT12=
EXTT13=
EXTT14=
EXTT15=
EXTT16=
EXTT17=
PLAYORDER=
